# xmcd CD database file
# Copyright (C) 1996 Ti Kan
#
# Track frame offsets:
#	182
#	10195
#	22350
#	32017
#	41742
#	51285
#	60712
#	70225
#	79965
#	90700
#	100707
#	110492
#	120850
#	132347
#	141320
#	150235
#	157290
#	168550
#
# Disc length: 2377 seconds
#
# Revision: 1
# Processed by: cddbd v1.4b41PL1 Copyright (c) Steve Scherf et al.
# Submitted via: EasyCD 2.21 - (C) 1996 Greg Leichner
#
DISCID=f6094712
DTITLE=Roy Orbison - The Classic Roy Orbison
DYEAR=1900
DGENRE=
TTITLE0=Ooby Dooby
TTITLE1=Trying To Get To You
TTITLE2=(Go, Go, Go) Down The Line
TTITLE3=This Kind Of Love
TTITLE4=You're Gonna Cry
TTITLE5=You're My Baby
TTITLE6=Rockhouse
TTITLE7=Claudette
TTITLE8=Domino
TTITLE9=Sweet and Easy To Love
TTITLE10=Devil Doll
TTITLE11=Chicken Hearted
TTITLE12=I Like Love
TTITLE13=It's Too Late
TTITLE14=Mean Little Mama
TTITLE15=You Tell Me
TTITLE16=Fools Hall Of Fame
TTITLE17=Problem Child
EXTD=
EXTT0=
EXTT1=
EXTT2=
EXTT3=
EXTT4=
EXTT5=
EXTT6=
EXTT7=
EXTT8=
EXTT9=
EXTT10=
EXTT11=
EXTT12=
EXTT13=
EXTT14=
EXTT15=
EXTT16=
EXTT17=
PLAYORDER=
